<?xml version="1.0" encoding="utf-8"?>
<!-- Generator: Adobe Illustrator 22.0.1, SVG Export Plug-In . SVG Version: 6.00 Build 0)  -->
<svg version="1.1" id="Livello_1" xmlns="http://www.w3.org/2000/svg" xmlns:xlink="http://www.w3.org/1999/xlink" x="0px" y="0px"
	 viewBox="0 0 256 256" style="enable-background:new 0 0 256 256;" xml:space="preserve">
<style type="text/css">
	.st0{fill:#FFFFFF;stroke:#000000;stroke-miterlimit:10;}
</style>
<g>
	<g>
		<path d="M162.1,101c-9.9,0-18,8-18,18c0,2.7,0.6,5.2,1.6,7.5l16.3,32l16.3-32c1.1-2.3,1.6-4.8,1.6-7.5
			C180.1,109,172,101,162.1,101z M162.1,129.7c-6,0-10.8-4.8-10.8-10.8c0-6,4.8-10.8,10.8-10.8c6,0,10.8,4.8,10.8,10.8
			C172.9,124.9,168.1,129.7,162.1,129.7z M167.5,163.8l6.5,13.1l-16.6,8.3l-5.6-27.8l0.9-0.9l0.1-0.1l-3.4-6.7l-1.8,1.8l-21.6-14.4
			l-21.6,14.4l-14.4-14.4L68.7,180l28.7,14.4l28.7-14.4l28.7,14.4l28.7-14.4l-12.1-24.2L167.5,163.8z M94.9,185.1l-16.6-8.3
			l13.9-27.8l7.3,7.3l0.9,0.9L94.9,185.1z M122.6,173.8l-20.1,10.1l5.2-26l0.9-0.6l14-9.3V173.8z M129.8,173.8V148l14,9.3l0.9,0.6
			l5.2,26L129.8,173.8z"/>
	</g>
	<g>
		<g>
			<path d="M53,64c-2.6-2.6-4-5.8-4-9.6c0-3.7,1.3-6.9,4-9.6c2.6-2.6,5.8-4,9.6-4h22.6v-9H62.6c-6.2,0-11.6,2.2-16,6.6
				c-4.4,4.4-6.6,9.7-6.6,16s2.2,11.6,6.6,16c4.4,4.4,9.7,6.6,16,6.6h22.6v-9H62.6C58.9,68,55.7,66.6,53,64z"/>
		</g>
		<g>
			<path d="M140,30.9c-6.2-6.2-13.6-9.3-22.4-9.3h-4.8c-0.4,1.5-1.1,2.9-2.3,4.1c-1.8,1.8-3.9,2.7-6.4,2.7c-1.2,0-2.3,0.4-3.2,1.3
				c-0.9,0.9-1.3,1.9-1.3,3.2c0,1.2,0.4,2.3,1.3,3.2c0.9,0.9,1.9,1.3,3.2,1.3v0c2.5,0,4.6,0.9,6.4,2.6c1.7,1.8,2.6,3.9,2.6,6.4v0
				c0,2.5-0.9,4.6-2.6,6.3c-1.8,1.8-3.9,2.7-6.4,2.7c-1.2,0-2.3,0.4-3.2,1.3c-0.9,0.9-1.3,1.9-1.3,3.2c0,1.2,0.4,2.3,1.3,3.2
				c0.9,0.9,1.9,1.3,3.2,1.3c2.5,0,4.6,0.9,6.4,2.6c1.8,1.8,2.6,3.9,2.6,6.4s-0.9,4.6-2.6,6.4c-1.8,1.8-3.9,2.6-6.4,2.6
				c-1.2,0-2.3,0.4-3.2,1.3c-0.3,0.3-0.6,0.6-0.8,0.9h17.5c8.7,0,16.2-3.1,22.4-9.3c6.2-6.2,9.3-13.6,9.3-22.4
				C149.3,44.6,146.2,37.1,140,30.9z M127.3,62.9c-2.6,2.6-5.8,4-9.6,4v-4.5c2.5,0,4.6-0.9,6.4-2.6c0.4-0.4,0.8-0.9,1.1-1.3
				c-0.4,0.1-0.9,0.1-1.4,0.1c-7.9,0-8.3-11.7-1.1-12.8c-1.5-1-3.1-1.5-5-1.5v-4.5c3.7,0,6.9,1.3,9.6,4c2.6,2.6,4,5.8,4,9.6
				C131.2,57,129.9,60.2,127.3,62.9z"/>
			<path d="M107.3,76.8c0.9-0.9,1.3-1.9,1.3-3.2s-0.4-2.3-1.3-3.2c-0.9-0.9-1.9-1.3-3.2-1.3c-2.5,0-4.6-0.9-6.4-2.6
				c-1.8-1.8-2.6-3.9-2.6-6.4c0-2.5,0.9-4.6,2.6-6.4c1.8-1.8,3.9-2.6,6.4-2.6c1.2,0,2.3-0.5,3.2-1.4c0.9-0.9,1.3-1.9,1.3-3.1
				c0-1.2-0.4-2.3-1.3-3.2c-0.9-0.9-2-1.3-3.2-1.3v0c-2.5,0-4.6-0.9-6.4-2.6c-1.8-1.8-2.6-3.9-2.6-6.4c0-2.5,0.9-4.6,2.6-6.4
				c1.8-1.8,3.9-2.6,6.4-2.6c1.2,0,2.3-0.5,3.2-1.4c0.3-0.3,0.5-0.6,0.7-0.9H90.6v63.2h4.8c0.4-1.5,1.2-2.9,2.4-4.2
				c1.7-1.7,3.9-2.6,6.4-2.6C105.4,78.1,106.4,77.7,107.3,76.8z"/>
		</g>
		<path class="st0" d="M184.4,21.6H216v18.1h-31.6c-3.7,0-6.9,1.3-9.6,4c-2.6,2.6-4,5.8-4,9.6h0c0,3.5,1.2,6.5,3.5,9H154
			c-0.8-2.8-1.3-5.8-1.3-9h0c0-8.7,3.1-16.2,9.3-22.4C168.2,24.7,175.6,21.6,184.4,21.6z M184.4,84.8h-31.6V66.7h31.6
			c3.7,0,6.9-1.3,9.6-4c2.6-2.6,4-5.8,4-9.6c0-3.5-1.2-6.5-3.5-9h20.3c0.8,2.8,1.2,5.8,1.2,9c0,8.7-3.1,16.2-9.3,22.4
			C200.5,81.7,193.1,84.8,184.4,84.8z M184.4,62.2c-2.5,0-4.6-0.9-6.4-2.6c-1.8-1.8-2.6-3.9-2.6-6.4c0-2.5,0.9-4.6,2.6-6.4
			c1.8-1.8,3.9-2.6,6.4-2.6c2.5,0,4.6,0.9,6.4,2.6c1.8,1.8,2.6,3.9,2.6,6.4c0,2.5-0.9,4.6-2.6,6.4C189,61.3,186.9,62.2,184.4,62.2z"
			/>
		<circle cx="124.4" cy="53.3" r="2.7"/>
		<circle cx="184.8" cy="53.3" r="2.7"/>
	</g>
</g>
<g>
	<path d="M78.1,209.4c1,0.8,1.5,2,1.5,3.6c0,1.5-0.5,2.7-1.5,3.6c-1,0.8-2.4,1.3-4.2,1.3h-4.6v5h-0.4v-14.7h5
		C75.6,208.1,77.1,208.6,78.1,209.4z M77.8,216.3c0.9-0.8,1.4-1.9,1.4-3.3s-0.5-2.5-1.4-3.3c-0.9-0.8-2.2-1.2-3.9-1.2h-4.6v8.9h4.6
		C75.6,217.4,76.9,217,77.8,216.3z"/>
	<path d="M83.4,222.5c-0.8-0.3-1.4-0.6-1.8-1.1l0.3-0.3c0.4,0.4,1,0.7,1.7,1c0.7,0.3,1.5,0.4,2.3,0.4c1.2,0,2.1-0.2,2.7-0.6
		c0.6-0.4,0.9-1,0.9-1.8c0-0.5-0.2-1-0.5-1.3c-0.3-0.3-0.7-0.5-1.2-0.7c-0.5-0.1-1.1-0.3-1.9-0.5c-0.9-0.2-1.5-0.3-2.1-0.5
		c-0.5-0.2-1-0.5-1.3-0.8s-0.5-0.9-0.5-1.6c0-0.8,0.3-1.4,1-2c0.7-0.5,1.6-0.8,2.9-0.8c0.7,0,1.3,0.1,2,0.3c0.7,0.2,1.2,0.5,1.6,0.8
		l-0.3,0.3c-0.4-0.3-0.9-0.6-1.5-0.8c-0.6-0.2-1.2-0.3-1.8-0.3c-1.1,0-2,0.2-2.6,0.7c-0.6,0.4-0.9,1-0.9,1.7c0,0.6,0.2,1,0.5,1.4
		c0.3,0.3,0.7,0.6,1.2,0.7s1.1,0.3,1.9,0.4c0.9,0.2,1.5,0.3,2,0.5c0.5,0.2,0.9,0.4,1.3,0.8c0.4,0.4,0.5,0.9,0.5,1.5
		c0,0.9-0.3,1.5-1,2c-0.7,0.5-1.7,0.8-3,0.8C85,222.9,84.2,222.8,83.4,222.5z"/>
	<path d="M101,212l-5.8,12.6c-0.4,0.9-0.8,1.5-1.3,1.8s-1.1,0.5-1.7,0.5c-1,0-1.8-0.3-2.4-1l0.3-0.3c0.3,0.3,0.6,0.6,0.9,0.7
		c0.3,0.1,0.7,0.2,1.1,0.2c0.6,0,1-0.2,1.5-0.5c0.4-0.3,0.8-0.9,1.2-1.6l0.8-1.7l-5-10.8h0.5l4.7,10.4l4.7-10.4H101z"/>
	<path d="M104.6,222.2c-0.8-0.5-1.4-1.1-1.9-2s-0.7-1.8-0.7-2.8c0-1.1,0.2-2,0.7-2.8s1.1-1.5,1.9-1.9c0.8-0.5,1.7-0.7,2.8-0.7
		c0.8,0,1.5,0.2,2.2,0.5c0.7,0.3,1.2,0.7,1.7,1.3l-0.3,0.3c-0.4-0.6-0.9-1-1.6-1.3s-1.3-0.4-2.1-0.4c-0.9,0-1.8,0.2-2.5,0.6
		c-0.7,0.4-1.3,1-1.8,1.8c-0.4,0.8-0.6,1.7-0.6,2.6c0,1,0.2,1.9,0.6,2.6c0.4,0.8,1,1.4,1.8,1.8c0.7,0.4,1.6,0.7,2.5,0.7
		c0.7,0,1.4-0.1,2.1-0.4s1.1-0.7,1.6-1.3l0.3,0.3c-0.4,0.6-1,1-1.7,1.3c-0.7,0.3-1.4,0.5-2.2,0.5
		C106.3,222.9,105.4,222.7,104.6,222.2z"/>
	<path d="M115.8,222.2c-0.8-0.5-1.4-1.1-1.9-2c-0.5-0.8-0.7-1.8-0.7-2.8c0-1,0.2-2,0.7-2.8s1.1-1.5,1.9-2c0.8-0.5,1.7-0.7,2.7-0.7
		s1.9,0.2,2.7,0.7c0.8,0.5,1.4,1.1,1.9,2c0.5,0.8,0.7,1.8,0.7,2.8c0,1.1-0.2,2-0.7,2.8c-0.5,0.8-1.1,1.5-1.9,2
		c-0.8,0.5-1.7,0.7-2.7,0.7S116.6,222.7,115.8,222.2z M121,221.9c0.7-0.4,1.3-1,1.7-1.8c0.4-0.8,0.6-1.7,0.6-2.6
		c0-1-0.2-1.9-0.6-2.6c-0.4-0.8-1-1.4-1.7-1.8c-0.7-0.4-1.6-0.6-2.5-0.6s-1.7,0.2-2.5,0.6c-0.7,0.4-1.3,1-1.7,1.8
		c-0.4,0.8-0.6,1.7-0.6,2.6c0,1,0.2,1.9,0.6,2.6c0.4,0.8,1,1.4,1.7,1.8c0.7,0.4,1.6,0.7,2.5,0.7S120.2,222.3,121,221.9z"/>
	<path d="M147.4,208.1v14.7H147V209l-6.7,11.7H140l-6.7-11.7v13.8h-0.4v-14.7h0.4l6.9,12.1l6.9-12.1H147.4z"/>
	<path d="M159,212.9c0.7,0.7,1,1.6,1,2.8v7.1h-0.4v-2.3c-0.3,0.7-0.9,1.3-1.6,1.7c-0.7,0.4-1.6,0.6-2.6,0.6c-1.2,0-2.1-0.3-2.8-0.8
		c-0.7-0.6-1-1.3-1-2.2c0-0.9,0.3-1.6,0.9-2.1c0.6-0.5,1.6-0.8,3-0.8h4.1v-1.2c0-1.1-0.3-2-0.9-2.6s-1.4-0.9-2.6-0.9
		c-0.8,0-1.5,0.1-2.2,0.4c-0.7,0.3-1.3,0.6-1.8,1.1l-0.3-0.3c0.5-0.5,1.1-0.9,1.9-1.2s1.5-0.4,2.3-0.4
		C157.4,211.9,158.3,212.3,159,212.9z M159.6,219.7v-2.4h-4.1c-1.2,0-2,0.2-2.6,0.7s-0.8,1.1-0.8,1.8c0,0.8,0.3,1.5,0.9,2
		c0.6,0.5,1.4,0.7,2.5,0.7C157.4,222.5,158.8,221.6,159.6,219.7z"/>
	<path d="M172.6,212.6c0.8,0.5,1.4,1.1,1.9,2s0.7,1.8,0.7,2.8s-0.2,2-0.7,2.8s-1.1,1.5-1.9,2c-0.8,0.5-1.7,0.7-2.7,0.7
		c-1.1,0-2.1-0.3-3-0.9s-1.5-1.4-1.9-2.4v7.4h-0.4V212h0.4v3.3c0.4-1,1-1.9,1.8-2.5c0.9-0.6,1.9-0.9,3-0.9
		C170.9,211.9,171.8,212.2,172.6,212.6z M172.4,221.9c0.7-0.4,1.3-1,1.7-1.8c0.4-0.8,0.6-1.7,0.6-2.6c0-1-0.2-1.9-0.6-2.6
		c-0.4-0.8-1-1.4-1.7-1.8c-0.7-0.4-1.6-0.7-2.5-0.7s-1.7,0.2-2.5,0.7c-0.7,0.4-1.3,1-1.7,1.8c-0.4,0.8-0.6,1.7-0.6,2.6
		c0,1,0.2,1.9,0.6,2.6c0.4,0.8,1,1.4,1.7,1.8c0.7,0.4,1.6,0.6,2.5,0.6S171.7,222.3,172.4,221.9z"/>
	<path d="M178.8,222.5c-0.8-0.3-1.4-0.6-1.8-1.1l0.3-0.3c0.4,0.4,1,0.7,1.7,1c0.7,0.3,1.5,0.4,2.3,0.4c1.2,0,2.1-0.2,2.7-0.6
		c0.6-0.4,0.9-1,0.9-1.8c0-0.5-0.2-1-0.5-1.3c-0.3-0.3-0.7-0.5-1.2-0.7c-0.5-0.1-1.1-0.3-1.9-0.5c-0.9-0.2-1.5-0.3-2.1-0.5
		c-0.5-0.2-1-0.5-1.3-0.8c-0.4-0.4-0.5-0.9-0.5-1.6c0-0.8,0.3-1.4,1-2c0.7-0.5,1.6-0.8,2.9-0.8c0.7,0,1.3,0.1,2,0.3s1.2,0.5,1.6,0.8
		l-0.3,0.3c-0.4-0.3-0.9-0.6-1.5-0.8c-0.6-0.2-1.2-0.3-1.8-0.3c-1.1,0-2,0.2-2.6,0.7c-0.6,0.4-0.9,1-0.9,1.7c0,0.6,0.2,1,0.5,1.4
		s0.7,0.6,1.2,0.7s1.1,0.3,1.9,0.4c0.9,0.2,1.5,0.3,2,0.5c0.5,0.2,0.9,0.4,1.3,0.8c0.3,0.4,0.5,0.9,0.5,1.5c0,0.9-0.3,1.5-1,2
		c-0.7,0.5-1.7,0.8-3,0.8C180.4,222.9,179.6,222.8,178.8,222.5z"/>
</g>
</svg>
